<?xml version="1.0" standalone="no"?>
<!DOCTYPE svg PUBLIC "-//W3C//DTD SVG 20010904//EN"
 "http://www.w3.org/TR/2001/REC-SVG-20010904/DTD/svg10.dtd">
<svg version="1.0" xmlns="http://www.w3.org/2000/svg"
 width="109.000000pt" height="115.000000pt" viewBox="0 0 109.000000 115.000000"
 preserveAspectRatio="xMidYMid meet">

<g transform="translate(0.000000,115.000000) scale(0.100000,-0.100000)"
fill="#000000" stroke="none">
<path d="M245 1060 c-10 -17 41 -68 55 -54 7 7 1 19 -19 38 -20 19 -31 24 -36
16z"/>
<path d="M507 1042 c-20 -22 -22 -42 -4 -42 13 0 36 21 51 48 11 19 -29 15
-47 -6z"/>
<path d="M376 947 c-8 -12 -48 -80 -90 -150 l-76 -129 88 -146 c48 -80 92
-147 98 -149 13 -4 187 282 182 300 -6 26 -164 287 -175 291 -7 3 -19 -5 -27
-17z m94 -153 c39 -64 70 -117 68 -119 -10 -8 -109 -55 -118 -55 -6 0 -10 36
-10 95 0 78 -3 95 -15 95 -12 0 -15 -17 -15 -95 0 -52 -2 -95 -5 -95 -6 0
-107 50 -113 55 -3 3 130 234 135 235 1 0 33 -52 73 -116z m-21 -199 c29 14
55 25 57 23 2 -2 -22 -46 -52 -97 l-56 -93 -50 84 c-69 113 -69 113 -6 82 l54
-26 53 27z"/>
<path d="M175 941 c-7 -12 1 -17 43 -26 25 -5 32 -3 32 8 0 24 -62 38 -75 18z"/>
<path d="M558 943 c-21 -5 -24 -21 -5 -29 18 -6 67 13 67 26 0 10 -30 12 -62
3z"/>
<path d="M69 811 l-24 -19 -2 -349 c-3 -301 -1 -351 12 -368 15 -19 28 -20
478 -20 404 0 462 2 462 15 0 13 -59 15 -457 18 -398 2 -458 4 -458 17 0 13
58 15 448 15 532 0 492 -10 492 121 0 65 4 85 21 108 19 25 21 40 18 118 -3
57 -9 96 -18 106 -19 23 -237 25 -281 2 -89 -46 -96 -175 -13 -231 22 -14 52
-19 136 -22 l107 -4 0 -74 c0 -62 -3 -75 -19 -84 -13 -6 -174 -10 -455 -10
l-436 0 0 315 c0 360 -7 335 95 335 41 0 56 3 53 13 -3 7 -29 13 -70 15 -52 2
-69 -1 -89 -17z m951 -351 l0 -100 -121 0 c-120 0 -121 0 -150 29 -21 22 -29
39 -29 66 0 84 36 104 188 105 l112 0 0 -100z"/>
<path d="M784 512 c-41 -27 -35 -93 11 -114 52 -23 110 35 84 85 -15 29 -28
37 -59 37 -14 0 -30 -4 -36 -8z m64 -53 c3 -28 -16 -43 -43 -33 -15 6 -21 45
-8 58 16 16 48 1 51 -25z"/>
<path d="M570 815 c0 -13 28 -15 191 -15 112 0 198 -4 210 -10 16 -9 19 -22
19 -85 0 -60 3 -75 15 -75 12 0 15 16 15 80 0 122 4 120 -247 120 -174 0 -203
-2 -203 -15z"/>
</g>
</svg>
